<svg xmlns="http://www.w3.org/2000/svg" viewBox="0 0 907.08661 283.46457"><defs><style>.cls-1,.cls-2,.cls-3,.cls-4{stroke:#fff;stroke-miterlimit:10;background-color:transaprent;}.cls-1,.cls-2{stroke-width:0px;}.cls-2,.cls-3,.cls-4{fill:#fff;}.cls-3{stroke-width:0.5px;}.cls-4{stroke-width:6px;}</style></defs><title>Logo-Full</title><g id="Full"><g id="Full-GR-background"><rect class="cls-1" width="907.08661" height="283.46457" fill-opacity="0"/></g><g id="Full-GR"><path class="cls-2" d="M207.4749,130.73637V223.937H180.61175V207.19449c-13.08706,12.09631-24.56666,16.661-43.62331,16.661-43.16424,0-76.91512-29.89847-76.91512-82.164,0-47.47254,36.04686-82.164,80.35909-82.164a79.278,79.278,0,0,1,56.71058,23.508l-18.827,18.715a53.80578,53.80578,0,0,0-37.88357-15.51982c-29.618,0-53.49615,20.541-53.49615,55.46073,0,39.02782,23.87815,55.46072,53.49615,55.46072A53.114,53.114,0,0,0,180.612,179.12181V156.07017H151.29463v-25.3338Z"/><path class="cls-2" d="M254.15925,223.937l-42.30384-68.5822L196.282,129.625h.00018L169.08661,87.00744V59.52756h54.15825s54.39073,0,54.39073,47.91353c0,29.124-19.9898,40.63268-35.79562,45.09516l44.1634,71.40076ZM226.7315,127.87494c7.20556-.70465,23.70873-4.22766,23.70873-20.43385,0-20.43365-27.19537-20.43365-27.19537-20.43365H201.3956Z"/></g><g id="Full-GR-Words"><path class="cls-3" d="M383.67169,105.27994v33.998h-8.66564l-.50971-5.59564c-4.84249,4.49344-9.85492,6.18916-16.90639,6.18916-15.97178,0-28.46038-11.10662-28.46038-30.52194,0-17.63495,13.33819-30.52213,29.73476-30.52213a29.27775,29.27775,0,0,1,20.9843,8.73273l-6.96646,6.95217a19.86941,19.86941,0,0,0-14.01784-5.76513c-10.95935,0-19.79483,7.63034-19.79483,20.60236,0,14.49786,8.83548,20.60236,19.79483,20.60236a19.62036,19.62036,0,0,0,14.86743-6.698v-8.563h-9.93992v-9.41091Z"/><path class="cls-3" d="M425.97848,132.1563H405.0792l-2.54877,6.86733h-10.7045l23.70291-61.04407,23.78783,61.04407h-10.7046Zm-17.671-8.56323h14.44263l-7.22131-20.60236Z"/><path class="cls-3" d="M479.92428,129.10405v9.91958H447.98062V79.67528h9.93993v49.42877Z"/><path class="cls-3" d="M498.86878,89.59486v14.83723h24.72243V114.267H498.86878v14.837h29.73486v9.91958H488.929V79.67528h39.67469v9.91958Z"/><path class="cls-3" d="M558.76207,114.267h-8.07081v24.75662h-9.93983V79.67528h19.79484s19.87985,0,19.87985,17.29577c0,9.58059-6.117,13.81969-11.46917,15.76974l12.14873,26.28284H570.14623Zm-8.07081-9.83492h9.855s9.93983,0,9.93983-7.461c0-7.37619-9.93983-7.37619-9.93983-7.37619h-9.855Z"/><path class="cls-3" d="M593.933,79.67528h9.94v59.34835h-9.94Z"/><path class="cls-3" d="M629.35959,89.59486v14.83723h24.72234V114.267H629.35959v14.837h29.73467v9.91958H619.41957V79.67528h39.67469v9.91958Z"/><path class="cls-3" d="M361.58294,204.75371a1.07724,1.07724,0,0,1-.76457-.33918L345.866,180.59042h-4.16293v23.48493a.77691.77691,0,0,1-.84959.67836h-9.685a.777.777,0,0,1-.84959-.67836V170.24682a.77685.77685,0,0,1,.84959-.67818h7.901c-2.88855-4.49362-5.862-9.2414-8.75056-13.735v-9.75008a.77684.77684,0,0,1,.84959-.67817h19.37s20.21963,0,20.21963,17.55011c0,10.42844-6.71151,14.5827-12.4886,16.36326l15.29223,24.41762a.63461.63461,0,0,1-.59474,1.01736ZM351.643,169.4838c3.22832-.08484,7.731-1.44137,7.731-6.52833,0-6.52834-6.88144-6.52834-8.83548-6.52834h-7.1363Z"/><path class="cls-3" d="M395.47961,156.17279v13.73485H418.6728a.694.694,0,0,1,.76457.67836v9.2414a.69388.69388,0,0,1-.76457.67818H395.47961v13.56535h28.03568a.777.777,0,0,1,.84959.67836v9.32606a.777.777,0,0,1-.84959.67836H385.03a.74839.74839,0,0,1-.76458-.67836V146.08353a.74824.74824,0,0,1,.76458-.67817h38.48532a.77685.77685,0,0,1,.84959.67817v9.4109a.777.777,0,0,1-.84959.67836Z"/><path class="cls-3" d="M485.87233,204.07535a.77687.77687,0,0,1-.84949.67836h-9.68507c-.16994,0-.59473-.08484-.67965-.25434l-27.18609-39.509v39.085a.74849.74849,0,0,1-.76467.67836h-9.685a.69409.69409,0,0,1-.76466-.67836V145.99869a.69406.69406,0,0,1,.76466-.67818h9.77c.16994,0,.50972.08485.59473.25434l27.271,39.84819V145.99869a.77691.77691,0,0,1,.84958-.67818h9.51514a.77687.77687,0,0,1,.84949.67818Z"/><path class="cls-3" d="M557.74358,174.99478c0,15.17622-9.855,30.52194-29.31007,30.52194-19.79483,0-29.4799-15.34572-29.4799-30.52194s9.68507-30.43728,29.4799-30.43728C547.88857,144.5575,557.74358,159.81856,557.74358,174.99478Zm-11.46917.1695c0-9.91958-6.03195-19.83935-17.8409-19.83935-11.97879,0-17.92581,9.91977-17.92581,19.83935,0,9.83492,5.947,19.66985,17.92581,19.66985C540.24246,194.83413,546.27441,184.9992,546.27441,175.16428Z"/><path class="cls-3" d="M612.02944,145.40536c.67955,0,1.01943.42383.76457.93251l-23.10818,59.518a.87424.87424,0,0,1-1.44432,0l-22.93814-59.518c-.25486-.50868.085-.93251.67956-.93251h10.36472a.79639.79639,0,0,1,.76457.42383l11.894,33.15036,11.89387-33.15036a.79659.79659,0,0,1,.76458-.42383Z"/><path class="cls-3" d="M644.5681,198.05587H625.283l-2.29391,6.274a.79658.79658,0,0,1-.76457.42384H611.77476c-.67956,0-1.01943-.42384-.76457-.9327l23.19319-59.68753a.87919.87919,0,0,1,1.52915,0L658.92572,203.821c.25486.50886-.085.9327-.67975.9327H647.71141a.75651.75651,0,0,1-.67956-.42384ZM628.936,188.05145h11.97888L634.968,170.24682Z"/><path class="cls-3" d="M693.33341,155.40978c0,.339-.33988.59333-.84959.59333H681.18449v48.07224a.694.694,0,0,1-.76457.67836h-9.60015a.694.694,0,0,1-.76457-.67836V156.00311H658.75606c-.50971,0-.84959-.25434-.84959-.59333v-8.81757a.77685.77685,0,0,1,.84959-.67818h33.72776a.77685.77685,0,0,1,.84959.67818Z"/><path class="cls-3" d="M702.93262,146.08353a.77684.77684,0,0,1,.84959-.67817h9.60014a.77684.77684,0,0,1,.84959.67817v57.99182a.777.777,0,0,1-.84959.67836h-9.60014a.777.777,0,0,1-.84959-.67836Z"/><path class="cls-3" d="M785.2549,174.99478c0,15.17622-9.85481,30.52194-29.31,30.52194-19.79484,0-29.47982-15.34572-29.47982-30.52194s9.685-30.43728,29.47982-30.43728C775.40009,144.5575,785.2549,159.81856,785.2549,174.99478Zm-11.469.1695c0-9.91958-6.03194-19.83935-17.841-19.83935-11.97889,0-17.92582,9.91977-17.92582,19.83935,0,9.83492,5.94693,19.66985,17.92582,19.66985C767.754,194.83413,773.78592,184.9992,773.78592,175.16428Z"/><path class="cls-3" d="M848.03665,204.07535a.777.777,0,0,1-.84959.67836H837.5019c-.16984,0-.59454-.08484-.67956-.25434l-27.18609-39.509v39.085a.74845.74845,0,0,1-.76457.67836h-9.68516a.694.694,0,0,1-.76458-.67836V145.99869a.694.694,0,0,1,.76458-.67818h9.77c.17,0,.5099.08485.59473.25434l27.2711,39.84819V145.99869a.777.777,0,0,1,.84959-.67818h9.51513a.777.777,0,0,1,.84959.67818Z"/><line class="cls-4" x1="330.3829" y1="62.3622" x2="848.03665" y2="62.3622"/><line class="cls-4" x1="330.3829" y1="221.10236" x2="848.03665" y2="221.10236"/></g></g></svg>